<?xml version="1.0" standalone="no"?>
<!DOCTYPE svg PUBLIC "-//W3C//DTD SVG 20010904//EN"
 "http://www.w3.org/TR/2001/REC-SVG-20010904/DTD/svg10.dtd">
<svg version="1.0" xmlns="http://www.w3.org/2000/svg"
 width="3840.000000pt" height="2688.000000pt" viewBox="0 0 3840.000000 2688.000000"
 preserveAspectRatio="xMidYMid meet">

<g transform="translate(0.000000,2688.000000) scale(0.100000,-0.100000)"
fill="#000000" stroke="none">
<path d="M0 13440 l0 -13440 19200 0 19200 0 0 13440 0 13440 -19200 0 -19200
0 0 -13440z m27165 5094 c4381 -2798 7965 -5090 7965 -5094 0 -4 -3584 -2296
-7965 -5093 l-7965 -5086 -7962 5084 c-4380 2797 -7963 5090 -7963 5095 0 7
15893 10167 15922 10179 1 1 3587 -2288 7968 -5085z"/>
<path d="M18810 20149 c-410 -24 -846 -90 -1243 -189 -1936 -486 -3560 -1811
-4429 -3616 -43 -90 -78 -168 -78 -174 0 -7 11 -9 28 -6 47 10 429 55 637 76
593 59 945 75 1635 75 736 0 1173 -23 1825 -95 2440 -271 4770 -1087 6865
-2403 533 -335 1123 -759 1609 -1156 102 -83 188 -151 191 -151 8 0 32 198 52
420 16 180 16 834 0 1020 -64 728 -208 1350 -459 1980 -507 1272 -1402 2368
-2553 3126 -1205 793 -2632 1176 -4080 1093z m2641 -4537 c55 2 99 1 99 -2 0
-3 -36 -31 -80 -62 l-79 -57 23 -73 c12 -40 26 -83 30 -95 4 -13 5 -23 2 -23
-4 0 -40 25 -81 55 -40 30 -77 55 -80 55 -3 0 -40 -25 -81 -56 -42 -30 -78
-53 -80 -51 -3 2 8 46 25 96 l29 92 -79 57 c-43 31 -79 59 -79 62 0 3 45 4 99
2 l100 -3 32 103 32 103 34 -103 35 -103 99 3z"/>
<path d="M15636 16033 c-3 -70 -9 -214 -12 -319 l-7 -191 269 -7 c148 -4 277
-10 287 -12 15 -5 17 2 17 54 l0 59 -227 7 c-126 4 -231 10 -234 14 -3 4 -4
43 -1 86 l4 79 184 -6 184 -6 0 50 c0 27 -1 49 -2 50 -2 0 -83 4 -180 8 -97 3
-179 9 -182 12 -4 3 -3 34 0 68 l7 62 218 -7 219 -7 0 55 0 56 -227 6 c-126 4
-247 9 -269 12 l-41 5 -7 -128z"/>
<path d="M14794 16104 c3 -26 6 -168 6 -315 l0 -269 163 0 c206 0 248 11 322
83 69 68 90 131 83 257 -8 136 -54 216 -150 264 -50 25 -58 26 -241 26 l-190
0 7 -46z m376 -84 c52 -27 80 -69 92 -143 13 -75 0 -131 -39 -178 -45 -53 -93
-69 -210 -69 l-103 0 0 205 0 205 110 0 c91 0 118 -4 150 -20z"/>
<path d="M14090 16108 c-68 -5 -126 -11 -128 -13 -2 -2 3 -127 12 -278 9 -151
16 -291 16 -311 l0 -36 56 0 57 0 -7 119 -7 119 63 6 c35 3 94 7 132 9 69 2
70 2 92 -31 20 -29 29 -59 50 -169 4 -20 10 -23 55 -23 l51 0 -7 53 c-10 78
-32 151 -56 181 l-21 27 25 27 c34 35 57 92 57 139 -1 73 -58 158 -123 182
-32 13 -138 12 -317 -1z m281 -111 c45 -35 50 -88 11 -127 -26 -25 -37 -29
-118 -34 -49 -4 -110 -9 -135 -11 l-47 -5 -7 80 c-4 45 -4 84 0 88 17 18 274
26 296 9z"/>
<path d="M16461 15849 c-12 -151 -25 -293 -28 -315 l-5 -41 47 -7 c26 -4 49
-5 52 -2 3 2 13 98 24 212 10 113 20 208 22 211 2 2 24 -95 48 -216 l43 -219
44 -7 c25 -4 48 -3 52 2 4 4 43 100 86 213 43 112 80 195 82 185 1 -11 -6
-109 -16 -217 l-18 -197 49 -6 c27 -4 50 -5 51 -4 5 7 57 621 53 626 -3 2 -38
5 -78 6 l-73 2 -81 -207 c-44 -114 -83 -204 -86 -200 -3 4 -25 105 -49 225
l-43 217 -32 0 c-18 0 -52 3 -77 6 l-44 6 -23 -273z"/>
<path d="M13369 16033 c-84 -14 -185 -114 -210 -206 -18 -69 -7 -194 23 -252
54 -104 147 -164 253 -165 111 0 199 61 251 173 24 53 26 68 22 145 -5 102
-29 160 -90 223 -63 65 -162 98 -249 82z m133 -129 c94 -49 129 -219 64 -312
-100 -145 -306 -54 -306 135 0 152 120 240 242 177z"/>
<path d="M17850 15894 c0 -4 -21 -129 -46 -276 -26 -148 -44 -272 -41 -275 8
-7 450 -83 455 -78 6 6 21 89 17 93 -2 2 -81 17 -177 34 -95 16 -175 32 -177
34 -6 6 15 134 23 142 3 3 71 -6 150 -20 l144 -25 6 36 c11 70 18 65 -140 91
l-145 24 6 51 c4 27 9 52 11 54 1 1 81 -10 176 -27 95 -17 174 -29 175 -28 2
2 7 24 12 49 8 44 7 48 -13 52 -11 3 -102 19 -201 35 -99 17 -192 33 -207 36
-16 3 -28 2 -28 -2z"/>
<path d="M19139 15708 c0 -2 -38 -138 -83 -303 -46 -165 -82 -301 -81 -303 2
-2 26 -9 54 -17 l51 -13 9 36 c6 21 18 69 27 107 9 39 20 74 24 78 4 5 68 -8
142 -27 74 -20 147 -36 164 -36 92 1 194 106 194 200 0 63 -61 156 -118 178
-15 6 -99 30 -187 52 -88 23 -168 43 -177 46 -10 3 -18 4 -19 2z m338 -206
c33 -18 48 -66 33 -102 -25 -60 -66 -63 -224 -20 -59 16 -110 31 -113 34 -2 2
1 24 7 47 6 24 16 60 21 81 l9 36 124 -33 c68 -18 132 -38 143 -43z"/>
<path d="M19856 15194 c-54 -163 -94 -300 -89 -303 10 -9 94 -34 97 -29 2 2
17 50 35 108 18 58 35 107 36 109 2 1 58 -14 125 -35 101 -31 124 -42 131 -62
13 -34 11 -109 -5 -169 l-14 -52 46 -15 c25 -9 47 -14 49 -12 2 2 11 28 19 57
16 59 21 152 10 186 -6 18 -1 25 31 42 123 63 150 211 55 310 -34 35 -55 44
-228 100 -105 33 -193 61 -195 61 -3 0 -49 -133 -103 -296z m292 120 c64 -20
124 -41 133 -47 21 -13 39 -50 39 -78 0 -25 -52 -79 -77 -79 -20 0 -254 70
-265 79 -6 5 16 95 36 148 7 17 2 18 134 -23z"/>
<path d="M14815 15349 c-513 -18 -1047 -64 -1565 -135 -169 -23 -553 -83 -556
-87 -1 -1 -18 -70 -38 -153 -216 -905 -232 -1923 -45 -2859 441 -2207 1976
-4057 4069 -4905 633 -257 1279 -408 2010 -472 190 -16 830 -16 1020 0 605 53
1137 162 1665 342 1124 384 2134 1068 2921 1980 531 616 961 1354 1232 2115
33 94 66 190 73 214 l13 44 -54 50 c-92 84 -337 293 -520 441 -1995 1623
-4369 2719 -6887 3181 -1094 200 -2225 283 -3338 244z m-1065 -524 l26 -80
102 -3 c56 -1 102 -6 102 -10 -1 -5 -105 -84 -151 -112 -4 -3 5 -48 21 -100
17 -51 28 -95 27 -97 -2 -1 -37 22 -79 52 -42 30 -80 55 -85 55 -4 0 -42 -25
-83 -55 -41 -31 -76 -52 -78 -47 -1 4 11 48 28 97 16 49 26 91 21 94 -5 3 -43
31 -85 61 l-77 55 105 3 105 3 32 97 c18 53 35 90 38 82 3 -8 17 -51 31 -95z
m7304 -927 l17 -57 71 -3 71 -3 -57 -39 c-31 -21 -56 -39 -56 -41 0 -1 9 -28
20 -60 11 -32 18 -60 16 -63 -3 -2 -26 12 -52 32 -26 20 -50 36 -53 36 -3 0
-28 -16 -56 -35 -27 -20 -51 -32 -53 -27 -1 4 6 33 17 63 l18 55 -54 39 -55
40 70 3 70 3 18 64 c10 35 21 61 24 57 4 -4 14 -33 24 -64z m-4385 -578 l24
-79 86 -3 86 -3 -68 -48 c-37 -26 -67 -49 -67 -50 0 -1 11 -38 25 -82 14 -44
25 -81 25 -83 0 -2 -26 17 -57 41 -32 24 -64 47 -71 51 -8 5 -39 -11 -82 -43
-39 -28 -70 -50 -70 -48 0 1 11 38 25 82 14 44 25 81 25 82 0 1 -30 23 -66 50
l-66 48 85 3 84 3 24 79 c13 44 26 80 29 80 3 0 16 -36 29 -80z m2561 -805
l24 -75 83 0 c46 0 83 -3 83 -7 -1 -5 -30 -28 -65 -53 -36 -25 -65 -48 -65
-51 0 -3 11 -39 25 -79 14 -40 24 -75 22 -76 -1 -2 -33 19 -69 46 l-67 49 -67
-49 c-37 -27 -69 -48 -71 -46 -2 1 8 36 22 76 14 40 25 76 25 80 0 4 -29 27
-65 51 -35 24 -65 47 -65 52 0 4 37 7 83 7 l83 0 24 75 c13 41 26 75 30 75 4
0 17 -34 30 -75z m-4240 -207 c8 -25 14 -28 55 -28 25 0 45 -3 45 -7 0 -5 -16
-18 -35 -31 -40 -25 -41 -29 -21 -77 8 -19 13 -35 10 -35 -3 0 -21 11 -41 25
l-37 24 -34 -25 c-18 -14 -35 -24 -37 -22 -2 2 2 23 8 46 10 37 9 45 -4 52 -9
5 -27 18 -40 29 l-24 20 51 1 51 0 14 47 c13 49 14 49 39 -19z m-645 -307 l29
-91 105 0 105 0 -82 -60 c-45 -33 -82 -66 -82 -73 0 -7 13 -52 29 -100 17 -48
25 -84 18 -80 -7 4 -45 31 -85 61 l-72 53 -83 -59 c-45 -33 -83 -59 -84 -58
-2 2 11 42 27 91 17 49 30 92 30 97 0 4 -37 34 -82 67 l-81 60 103 3 104 3 30
92 c16 50 33 90 36 88 3 -2 19 -44 35 -94z m5664 -98 l22 -73 86 0 87 0 -55
-41 c-30 -22 -61 -44 -69 -49 -13 -7 -11 -20 12 -89 14 -45 23 -81 20 -81 -4
0 -34 21 -66 45 -33 25 -63 45 -68 45 -5 0 -36 -20 -70 -45 -34 -25 -63 -43
-65 -41 -2 2 7 38 21 80 l24 76 -66 48 -67 47 85 5 84 5 25 77 c14 43 28 75
32 70 4 -4 17 -40 28 -79z m-1373 -83 l69 -5 -53 -38 c-28 -21 -52 -44 -52
-51 0 -7 7 -34 16 -60 9 -26 14 -49 12 -52 -3 -2 -26 12 -51 31 -25 19 -49 35
-53 35 -4 0 -31 -18 -61 -40 -29 -23 -53 -39 -53 -37 0 2 9 30 20 62 11 32 20
62 20 66 0 4 -26 26 -57 48 l-57 40 73 3 73 3 21 65 20 65 22 -65 22 -65 69
-5z m-5121 -450 l27 -80 85 0 86 0 -66 -47 c-37 -27 -67 -53 -67 -59 0 -6 10
-43 23 -83 13 -39 22 -71 20 -71 -3 0 -33 20 -67 45 -35 25 -67 45 -72 45 -5
0 -36 -21 -69 -46 -33 -25 -61 -41 -62 -37 -2 5 8 41 21 81 l25 72 -67 47 -67
48 82 3 82 3 26 79 c15 44 28 80 30 80 2 0 15 -36 30 -80z m5428 -32 l52 -3
-41 -30 -42 -29 14 -39 c21 -58 18 -62 -25 -28 l-38 30 -42 -30 c-22 -17 -41
-29 -41 -26 0 2 7 24 15 48 15 43 15 43 -12 66 -16 12 -31 22 -35 23 -5 0 -8
5 -8 10 0 6 20 10 45 10 28 0 47 5 50 13 2 6 10 26 16 42 l11 30 15 -42 c14
-41 15 -42 66 -45z m-3205 -35 l23 -72 87 -3 87 -3 -68 -48 c-37 -26 -67 -51
-67 -56 0 -4 11 -41 25 -81 14 -40 24 -74 22 -76 -1 -1 -33 20 -70 48 l-68 49
-70 -50 c-38 -28 -69 -47 -69 -43 0 5 11 42 25 82 14 41 22 77 18 81 -5 3 -37
27 -72 52 l-64 46 88 3 89 3 25 77 c14 43 28 75 31 70 3 -4 16 -39 28 -79z
m8207 -42 l29 -91 105 0 105 0 -82 -60 c-45 -33 -82 -66 -82 -73 0 -7 13 -52
29 -100 17 -49 25 -84 18 -80 -7 3 -45 31 -85 60 l-73 54 -82 -60 c-45 -33
-83 -59 -84 -57 -2 1 11 42 27 91 17 49 30 92 30 96 0 5 -36 34 -80 66 l-81
58 103 5 102 5 30 92 c16 50 33 90 36 88 3 -2 19 -44 35 -94z m920 -121 l18
-59 71 -3 71 -3 -56 -40 -57 -40 19 -60 c10 -32 16 -61 14 -63 -2 -3 -21 9
-42 25 -61 48 -60 48 -118 4 -30 -23 -55 -38 -55 -33 0 5 9 35 20 67 11 32 20
59 20 60 0 1 -26 19 -57 41 l-57 39 72 3 72 3 18 59 c9 33 20 60 23 60 3 0 14
-27 24 -60z m-540 -578 l88 -3 -71 -49 -70 -50 24 -77 c13 -42 22 -78 20 -80
-2 -2 -31 17 -65 42 -33 25 -64 45 -67 45 -3 0 -34 -20 -68 -45 -35 -25 -66
-45 -69 -45 -3 0 7 36 21 81 23 69 25 82 12 89 -8 5 -39 27 -69 49 l-55 41 87
0 86 0 22 73 c12 39 24 76 27 81 3 6 18 -26 32 -70 l27 -79 88 -3z m-5089 46
l29 -93 102 -5 102 -5 -79 -55 c-44 -30 -79 -60 -80 -66 0 -5 13 -50 30 -99
16 -49 29 -89 27 -91 -1 -1 -39 25 -84 58 l-83 59 -82 -59 c-46 -33 -84 -59
-85 -58 -2 2 11 42 27 91 17 49 30 94 30 99 -1 6 -36 36 -79 66 l-78 55 100 5
101 5 30 93 c17 50 33 92 36 92 4 0 19 -42 36 -92z m-3706 -1 l16 -52 67 -3
c37 -2 67 -6 67 -10 0 -4 -23 -22 -50 -41 -28 -18 -50 -37 -50 -41 0 -4 9 -33
20 -65 11 -32 20 -60 20 -62 0 -2 -25 15 -56 38 l-56 41 -58 -41 -59 -42 19
57 c11 32 20 63 20 70 0 7 -24 30 -52 51 l-53 38 69 5 69 5 20 58 c10 32 22
55 25 52 4 -3 13 -29 22 -58z m8379 -587 l83 -5 -66 -48 c-36 -27 -66 -50 -66
-51 0 -1 11 -36 25 -76 14 -40 23 -75 21 -78 -3 -2 -32 17 -65 42 -33 25 -64
46 -68 46 -5 0 -36 -20 -69 -45 -32 -24 -62 -45 -66 -45 -3 0 6 36 20 81 23
69 25 82 12 89 -8 5 -39 27 -69 49 l-55 41 85 0 85 0 18 58 c37 117 35 116 65
27 l28 -80 82 -5z m-7240 -55 c56 0 101 -2 101 -5 0 -3 -32 -27 -70 -54 -39
-27 -75 -55 -80 -61 -7 -8 0 -41 20 -100 17 -49 30 -93 30 -97 0 -5 -26 11
-57 35 -115 87 -105 85 -166 40 -28 -21 -66 -49 -84 -61 l-32 -23 34 101 34
100 -85 61 c-46 33 -84 61 -84 62 0 1 46 2 102 2 l103 0 34 100 35 100 32
-100 32 -100 101 0z m5895 -112 l17 -52 71 -3 71 -3 -57 -39 c-31 -21 -56 -42
-56 -46 0 -4 9 -33 20 -65 11 -32 20 -60 20 -62 0 -2 -25 15 -55 38 l-55 42
-52 -37 c-28 -19 -53 -34 -56 -32 -2 2 5 30 14 61 21 64 27 51 -57 117 l-34
27 71 1 71 0 18 61 c9 34 20 57 25 53 4 -5 15 -32 24 -61z m-1771 -121 l69 -3
-55 -40 -56 -39 20 -57 c10 -31 19 -60 19 -65 0 -5 -24 9 -54 31 l-53 39 -57
-40 c-31 -22 -56 -38 -56 -35 0 2 9 30 20 63 l21 59 -23 20 c-13 11 -37 30
-53 42 l-30 22 66 1 66 0 12 42 c30 99 31 100 55 28 l21 -65 68 -3z m2549 -64
l70 -3 -55 -40 -54 -39 18 -55 c11 -30 18 -59 16 -64 -1 -4 -23 8 -49 27 -26
20 -50 36 -54 36 -4 0 -29 -16 -56 -36 -28 -19 -52 -34 -54 -31 -2 2 5 30 16
62 11 32 20 59 20 61 0 1 -26 21 -57 43 l-58 41 72 0 71 0 23 67 22 67 20 -67
20 -66 69 -3z m-1532 -33 l22 -65 71 0 71 0 -53 -40 c-30 -21 -55 -41 -57 -43
-3 -2 4 -32 15 -66 10 -33 17 -61 15 -61 -2 0 -27 16 -55 36 l-50 37 -52 -36
c-28 -20 -53 -34 -55 -32 -2 2 5 29 14 60 l18 57 -24 22 c-14 11 -39 31 -55
43 l-30 22 71 1 71 0 18 65 c9 36 19 65 20 65 2 0 13 -29 25 -65z m785 -406
l27 -80 84 3 c46 2 84 2 84 1 0 -2 -31 -25 -69 -53 l-70 -51 25 -71 c13 -39
24 -75 24 -80 0 -5 -29 11 -64 36 -35 26 -67 46 -71 46 -4 0 -36 -20 -71 -45
-34 -25 -64 -45 -67 -45 -2 0 7 32 20 71 13 40 23 77 23 84 0 7 -29 32 -65 56
-35 24 -65 46 -65 49 0 3 38 4 84 2 l84 -3 27 80 c15 45 28 81 30 81 2 0 15
-36 30 -81z m-1241 -239 l90 0 -64 -46 c-36 -26 -68 -50 -73 -53 -4 -4 4 -40
18 -81 14 -40 25 -77 25 -82 0 -4 -31 15 -69 43 l-70 50 -68 -49 c-37 -28 -69
-49 -70 -48 -2 2 8 36 22 76 14 40 25 77 25 81 0 5 -30 30 -67 56 l-68 48 87
3 87 3 16 55 c34 119 35 119 63 27 l25 -83 91 0z m1226 -465 l21 -64 67 -3 66
-3 -52 -35 c-28 -19 -52 -40 -52 -46 0 -6 9 -36 20 -68 21 -62 21 -62 -50 -10
l-46 33 -51 -40 c-29 -21 -54 -39 -57 -39 -3 0 4 25 15 57 10 31 19 61 19 67
0 6 -23 27 -52 46 l-51 35 69 5 69 5 18 63 c10 34 20 62 22 62 2 0 13 -29 25
-65z m-3365 -285 c6 -26 11 -30 38 -30 l32 -1 -24 -20 c-22 -18 -24 -24 -14
-50 13 -34 11 -35 -22 -13 -23 15 -27 15 -50 0 -33 -22 -35 -21 -22 15 11 27
10 32 -13 49 l-25 20 32 0 c27 0 32 4 38 30 4 17 10 30 15 30 5 0 11 -13 15
-30z"/>
<path d="M20838 15134 c-63 -19 -149 -99 -185 -172 -24 -50 -28 -69 -28 -147
0 -78 4 -97 27 -140 51 -97 132 -147 235 -147 149 1 276 118 301 276 36 226
-143 394 -350 330z m171 -121 c49 -37 65 -70 69 -142 4 -70 -14 -126 -57 -175
-56 -63 -175 -74 -231 -21 -107 102 -56 310 88 356 39 12 101 3 131 -18z"/>
<path d="M21625 14827 c-68 -23 -101 -44 -148 -97 -117 -130 -117 -333 -1
-440 25 -23 61 -48 79 -56 39 -16 151 -19 189 -5 l25 10 -15 -34 c-8 -19 -14
-38 -14 -43 0 -10 44 -32 63 -32 7 0 30 42 52 93 22 50 49 112 61 137 12 25
19 48 15 52 -6 6 -199 88 -207 88 -5 0 -34 -58 -34 -68 0 -5 20 -17 45 -26 25
-10 45 -21 45 -25 0 -18 -80 -51 -125 -51 -91 0 -155 72 -155 173 0 180 203
293 309 172 16 -19 33 -50 36 -69 6 -29 14 -37 57 -55 28 -12 55 -21 60 -21
12 0 3 66 -18 130 -40 126 -195 207 -319 167z"/>
<path d="M22184 14314 c-75 -146 -138 -274 -141 -283 -3 -12 9 -23 41 -39 l46
-22 51 103 c28 56 53 103 54 105 5 5 230 -110 237 -122 17 -25 0 -116 -35
-197 l-16 -36 45 -21 45 -22 31 67 c25 54 32 82 32 135 1 58 4 68 19 68 31 0
95 38 121 73 52 68 53 161 2 237 -22 33 -52 52 -205 129 -99 50 -182 91 -185
91 -3 0 -66 -120 -142 -266z m304 62 c113 -57 137 -76 146 -116 9 -37 -25 -86
-64 -95 -27 -6 -53 3 -156 54 -68 33 -124 63 -124 66 0 16 72 145 80 145 6 0
59 -24 118 -54z"/>
<path d="M22915 13932 c-82 -147 -150 -271 -150 -276 0 -11 464 -276 483 -276
12 0 60 86 51 93 -2 2 -87 50 -189 107 -102 57 -190 107 -197 112 -8 7 0 28
29 79 22 38 44 69 49 69 5 0 77 -39 160 -86 121 -69 153 -84 160 -73 14 21 39
67 39 73 0 3 -69 44 -152 91 -84 48 -154 88 -156 90 -4 4 32 74 50 99 14 17
24 13 203 -88 143 -81 190 -104 197 -94 5 7 17 29 28 48 l18 36 -233 132
c-128 73 -234 132 -236 132 -2 0 -71 -121 -154 -268z"/>
<path d="M23781 13683 c-57 -30 -93 -83 -93 -137 0 -60 24 -98 134 -212 95
-100 113 -130 98 -169 -22 -57 -122 -35 -203 46 -45 44 -49 51 -45 88 3 39 1
41 -52 75 l-55 35 -12 -27 c-31 -70 -3 -155 78 -232 90 -86 229 -143 309 -125
62 14 130 95 130 157 0 44 -45 113 -135 207 -115 121 -124 135 -98 170 28 37
67 38 131 1 64 -37 95 -82 88 -128 -4 -30 -1 -35 47 -67 48 -32 53 -34 64 -18
42 57 21 146 -50 217 -106 105 -260 159 -336 119z"/>
<path d="M24494 13230 c-42 -13 -101 -80 -109 -124 -10 -52 28 -124 123 -234
85 -99 104 -134 91 -169 -17 -47 -88 -41 -161 12 -61 45 -82 78 -83 131 0 41
-3 46 -50 79 l-49 35 -13 -22 c-39 -71 2 -187 96 -270 147 -128 308 -143 378
-36 52 78 28 159 -86 281 -69 73 -111 133 -111 157 0 26 36 53 70 52 38 -1 89
-32 130 -79 27 -30 31 -42 28 -79 -3 -41 -1 -44 47 -79 l50 -35 18 41 c37 82
-1 170 -108 252 -100 75 -194 107 -261 87z"/>
<path d="M25143 12679 c-76 -29 -154 -104 -188 -181 -37 -82 -39 -182 -6 -251
31 -64 98 -122 162 -141 66 -20 92 -20 159 0 146 43 243 170 245 319 1 201
-183 327 -372 254z m195 -116 c64 -48 86 -149 48 -223 -76 -147 -254 -182
-326 -64 -57 92 -7 233 103 289 61 31 132 30 175 -2z"/>
</g>
</svg>
