<?xml version="1.0" standalone="no"?>
<!DOCTYPE svg PUBLIC "-//W3C//DTD SVG 20010904//EN"
 "http://www.w3.org/TR/2001/REC-SVG-20010904/DTD/svg10.dtd">
<svg version="1.0" xmlns="http://www.w3.org/2000/svg"
 width="3840.000000pt" height="2022.000000pt" viewBox="0 0 3840.000000 2022.000000"
 preserveAspectRatio="xMidYMid meet">

<g transform="translate(0.000000,2022.000000) scale(0.100000,-0.100000)"
fill="#000000" stroke="none">
<path d="M0 14780 l0 -5440 19200 0 19200 0 0 775 0 775 -11520 0 -11520 0 0
780 0 780 11520 0 11520 0 0 775 0 775 -11520 0 -11520 0 0 780 0 780 11520 0
11520 0 0 775 0 775 -11520 0 -11520 0 0 780 0 780 11520 0 11520 0 0 775 0
775 -19200 0 -19200 0 0 -5440z m1351 4758 l65 -203 222 -3 c122 -1 222 -6
222 -10 0 -5 -77 -63 -170 -131 -94 -68 -173 -127 -176 -132 -3 -5 25 -99 61
-210 37 -111 64 -203 61 -206 -3 -3 -80 50 -172 117 -92 67 -172 124 -178 126
-6 2 -91 -55 -188 -126 -98 -71 -178 -125 -178 -119 0 6 30 101 66 210 36 109
62 203 59 209 -3 5 -82 65 -175 132 -94 67 -170 126 -170 130 0 4 100 9 222
10 l222 3 65 203 c35 111 67 202 71 202 4 0 36 -91 71 -202z m2560 0 l65 -203
222 -3 c122 -1 222 -6 222 -10 0 -5 -77 -63 -170 -131 -94 -68 -173 -127 -176
-132 -3 -5 25 -99 61 -210 37 -111 64 -203 61 -206 -3 -3 -80 50 -172 117 -92
67 -172 124 -178 126 -6 2 -91 -55 -188 -126 -98 -71 -178 -125 -178 -119 0 6
30 101 66 210 36 109 62 203 59 209 -3 5 -82 65 -175 132 -94 67 -170 126
-170 130 0 4 100 9 222 10 l222 3 65 203 c35 111 67 202 71 202 4 0 36 -91 71
-202z m2560 0 l65 -203 222 -3 c122 -1 222 -6 222 -10 0 -5 -77 -63 -170 -131
-94 -68 -173 -127 -176 -132 -3 -5 25 -99 61 -210 37 -111 64 -203 61 -206 -3
-3 -80 50 -172 117 -92 67 -172 124 -178 126 -6 2 -91 -55 -188 -126 -98 -71
-178 -125 -178 -119 0 6 30 101 66 210 36 109 62 203 59 209 -3 5 -82 65 -175
132 -94 67 -170 126 -170 130 0 4 100 9 222 10 l222 3 65 203 c35 111 67 202
71 202 4 0 36 -91 71 -202z m2560 0 l65 -203 222 -3 c122 -1 222 -6 222 -10 0
-5 -77 -63 -170 -131 -94 -68 -173 -127 -176 -132 -3 -5 25 -99 61 -210 37
-111 64 -203 61 -206 -3 -3 -80 50 -172 117 -92 67 -172 124 -178 126 -6 2
-91 -55 -188 -126 -98 -71 -178 -125 -178 -119 0 6 30 101 66 210 36 109 62
203 59 209 -3 5 -82 65 -175 132 -94 67 -170 126 -170 130 0 4 100 9 222 10
l222 3 65 203 c35 111 67 202 71 202 4 0 36 -91 71 -202z m2560 0 l65 -203
222 -3 c122 -1 222 -6 222 -10 0 -5 -77 -63 -170 -131 -94 -68 -173 -127 -176
-132 -3 -5 25 -99 61 -210 37 -111 64 -203 61 -206 -3 -3 -80 50 -172 117 -92
67 -172 124 -178 126 -6 2 -91 -55 -188 -126 -98 -71 -178 -125 -178 -119 0 6
30 101 66 210 36 109 62 203 59 209 -3 5 -82 65 -175 132 -94 67 -170 126
-170 130 0 4 100 9 222 10 l222 3 65 203 c35 111 67 202 71 202 4 0 36 -91 71
-202z m2560 0 l65 -203 222 -3 c122 -1 222 -6 222 -10 0 -5 -77 -63 -170 -131
-94 -68 -173 -127 -176 -132 -3 -5 25 -99 61 -210 37 -111 64 -203 61 -206 -3
-3 -80 50 -172 117 -92 67 -172 124 -178 126 -6 2 -91 -55 -188 -126 -98 -71
-178 -125 -178 -119 0 6 30 101 66 210 36 109 62 203 59 209 -3 5 -82 65 -175
132 -94 67 -170 126 -170 130 0 4 100 9 222 10 l222 3 65 203 c35 111 67 202
71 202 4 0 36 -91 71 -202z m-11519 -1090 l65 -203 222 -3 c121 -1 221 -6 221
-10 0 -4 -79 -63 -175 -132 -96 -69 -174 -129 -174 -134 -1 -4 29 -98 65 -208
36 -110 64 -202 61 -204 -3 -3 -83 52 -178 121 -95 69 -178 124 -185 121 -7
-3 -88 -60 -179 -126 -92 -67 -169 -119 -172 -117 -3 3 25 95 61 205 36 110
66 204 66 208 -1 5 -79 65 -175 134 -96 69 -175 128 -175 132 0 4 100 9 221
10 l222 3 65 203 c36 111 69 202 72 202 3 0 36 -91 72 -202z m2560 0 l65 -203
222 -3 c121 -1 221 -6 221 -10 0 -4 -79 -63 -175 -132 -96 -69 -174 -129 -174
-134 -1 -4 29 -98 65 -208 36 -110 64 -202 61 -204 -3 -3 -83 52 -178 121 -95
69 -178 124 -185 121 -7 -3 -88 -60 -179 -126 -92 -67 -169 -119 -172 -117 -3
3 25 95 61 205 36 110 66 204 66 208 -1 5 -79 65 -175 134 -96 69 -175 128
-175 132 0 4 100 9 221 10 l222 3 65 203 c36 111 69 202 72 202 3 0 36 -91 72
-202z m2560 0 l65 -203 222 -3 c121 -1 221 -6 221 -10 0 -4 -79 -63 -175 -132
-96 -69 -174 -129 -174 -134 -1 -4 29 -98 65 -208 36 -110 64 -202 61 -204 -3
-3 -83 52 -178 121 -95 69 -178 124 -185 121 -7 -3 -88 -60 -179 -126 -92 -67
-169 -119 -172 -117 -3 3 25 95 61 205 36 110 66 204 66 208 -1 5 -79 65 -175
134 -96 69 -175 128 -175 132 0 4 100 9 221 10 l222 3 65 203 c36 111 69 202
72 202 3 0 36 -91 72 -202z m2560 0 l65 -203 222 -3 c121 -1 221 -6 221 -10 0
-4 -79 -63 -175 -132 -96 -69 -174 -129 -174 -134 -1 -4 29 -98 65 -208 36
-110 64 -202 61 -204 -3 -3 -83 52 -178 121 -95 69 -178 124 -185 121 -7 -3
-88 -60 -179 -126 -92 -67 -169 -119 -172 -117 -3 3 25 95 61 205 36 110 66
204 66 208 -1 5 -79 65 -175 134 -96 69 -175 128 -175 132 0 4 100 9 221 10
l222 3 65 203 c36 111 69 202 72 202 3 0 36 -91 72 -202z m2560 0 l65 -203
222 -3 c121 -1 221 -6 221 -10 0 -4 -79 -63 -175 -132 -96 -69 -174 -129 -174
-134 -1 -4 29 -98 65 -208 36 -110 64 -202 61 -204 -3 -3 -83 52 -178 121 -95
69 -178 124 -185 121 -7 -3 -88 -60 -179 -126 -92 -67 -169 -119 -172 -117 -3
3 25 95 61 205 36 110 66 204 66 208 -1 5 -79 65 -175 134 -96 69 -175 128
-175 132 0 4 100 9 221 10 l222 3 65 203 c36 111 69 202 72 202 3 0 36 -91 72
-202z m-11519 -1093 l66 -200 226 -5 225 -5 -172 -125 c-94 -69 -176 -128
-181 -132 -6 -3 17 -90 57 -213 37 -114 66 -209 63 -211 -2 -2 -81 52 -175
121 -95 69 -176 125 -182 125 -5 0 -87 -56 -181 -125 -95 -69 -174 -124 -176
-121 -2 2 26 97 63 211 40 123 63 210 57 213 -5 4 -87 63 -181 132 l-172 125
226 5 225 5 67 207 c37 113 70 203 73 200 4 -4 36 -97 72 -207z m2560 0 l66
-200 226 -5 225 -5 -172 -125 c-94 -69 -176 -128 -181 -132 -6 -3 17 -90 57
-213 37 -114 66 -209 63 -211 -2 -2 -81 52 -175 121 -95 69 -176 125 -182 125
-5 0 -87 -56 -181 -125 -95 -69 -174 -124 -176 -121 -2 2 26 97 63 211 40 123
63 210 57 213 -5 4 -87 63 -181 132 l-172 125 226 5 225 5 67 207 c37 113 70
203 73 200 4 -4 36 -97 72 -207z m2560 0 l66 -200 226 -5 225 -5 -172 -125
c-94 -69 -176 -128 -181 -132 -6 -3 17 -90 57 -213 37 -114 66 -209 63 -211
-2 -2 -81 52 -175 121 -95 69 -176 125 -182 125 -5 0 -87 -56 -181 -125 -95
-69 -174 -124 -176 -121 -2 2 26 97 63 211 40 123 63 210 57 213 -5 4 -87 63
-181 132 l-172 125 226 5 225 5 67 207 c37 113 70 203 73 200 4 -4 36 -97 72
-207z m2560 0 l66 -200 226 -5 225 -5 -172 -125 c-94 -69 -176 -128 -181 -132
-6 -3 17 -90 57 -213 37 -114 66 -209 63 -211 -2 -2 -81 52 -175 121 -95 69
-176 125 -182 125 -5 0 -87 -56 -181 -125 -95 -69 -174 -124 -176 -121 -2 2
26 97 63 211 40 123 63 210 57 213 -5 4 -87 63 -181 132 l-172 125 226 5 225
5 67 207 c37 113 70 203 73 200 4 -4 36 -97 72 -207z m2560 0 l66 -200 226 -5
225 -5 -172 -125 c-94 -69 -176 -128 -181 -132 -6 -3 17 -90 57 -213 37 -114
66 -209 63 -211 -2 -2 -81 52 -175 121 -95 69 -176 125 -182 125 -5 0 -87 -56
-181 -125 -95 -69 -174 -124 -176 -121 -2 2 26 97 63 211 40 123 63 210 57
213 -5 4 -87 63 -181 132 l-172 125 226 5 225 5 67 207 c37 113 70 203 73 200
4 -4 36 -97 72 -207z m2560 0 l66 -200 226 -5 225 -5 -172 -125 c-94 -69 -176
-128 -181 -132 -6 -3 17 -90 57 -213 37 -114 66 -209 63 -211 -2 -2 -81 52
-175 121 -95 69 -176 125 -182 125 -5 0 -87 -56 -181 -125 -95 -69 -174 -124
-176 -121 -2 2 26 97 63 211 40 123 63 210 57 213 -5 4 -87 63 -181 132 l-172
125 226 5 225 5 67 207 c37 113 70 203 73 200 4 -4 36 -97 72 -207z m-11520
-1085 l67 -210 225 -2 224 -3 -180 -129 c-98 -72 -179 -132 -179 -135 0 -3 30
-97 66 -209 36 -112 64 -206 62 -207 -2 -2 -80 52 -173 120 -94 68 -176 124
-183 125 -8 0 -91 -56 -185 -125 -94 -68 -173 -123 -175 -121 -2 2 26 96 62
208 36 113 66 207 66 209 0 3 -80 63 -179 135 l-179 129 224 3 224 2 67 210
c38 115 70 210 73 210 3 0 35 -95 73 -210z m2560 0 l67 -210 225 -2 224 -3
-180 -129 c-98 -72 -179 -132 -179 -135 0 -3 30 -97 66 -209 36 -112 64 -206
62 -207 -2 -2 -80 52 -173 120 -94 68 -176 124 -183 125 -8 0 -91 -56 -185
-125 -94 -68 -173 -123 -175 -121 -2 2 26 96 62 208 36 113 66 207 66 209 0 3
-80 63 -179 135 l-179 129 224 3 224 2 67 210 c38 115 70 210 73 210 3 0 35
-95 73 -210z m2560 0 l67 -210 225 -2 224 -3 -180 -129 c-98 -72 -179 -132
-179 -135 0 -3 30 -97 66 -209 36 -112 64 -206 62 -207 -2 -2 -80 52 -173 120
-94 68 -176 124 -183 125 -8 0 -91 -56 -185 -125 -94 -68 -173 -123 -175 -121
-2 2 26 96 62 208 36 113 66 207 66 209 0 3 -80 63 -179 135 l-179 129 224 3
224 2 67 210 c38 115 70 210 73 210 3 0 35 -95 73 -210z m2560 0 l67 -210 225
-2 224 -3 -180 -129 c-98 -72 -179 -132 -179 -135 0 -3 30 -97 66 -209 36
-112 64 -206 62 -207 -2 -2 -80 52 -173 120 -94 68 -176 124 -183 125 -8 0
-91 -56 -185 -125 -94 -68 -173 -123 -175 -121 -2 2 26 96 62 208 36 113 66
207 66 209 0 3 -80 63 -179 135 l-179 129 224 3 224 2 67 210 c38 115 70 210
73 210 3 0 35 -95 73 -210z m2560 0 l67 -210 225 -2 224 -3 -180 -129 c-98
-72 -179 -132 -179 -135 0 -3 30 -97 66 -209 36 -112 64 -206 62 -207 -2 -2
-80 52 -173 120 -94 68 -176 124 -183 125 -8 0 -91 -56 -185 -125 -94 -68
-173 -123 -175 -121 -2 2 26 96 62 208 36 113 66 207 66 209 0 3 -80 63 -179
135 l-179 129 224 3 224 2 67 210 c38 115 70 210 73 210 3 0 35 -95 73 -210z
m-11520 -1090 l67 -210 227 0 226 0 -174 -126 c-96 -69 -178 -129 -182 -133
-5 -5 22 -102 58 -215 37 -114 65 -209 63 -211 -1 -2 -83 55 -180 126 l-177
130 -178 -130 c-98 -71 -180 -128 -181 -126 -2 2 26 96 62 208 36 113 66 207
66 210 0 3 -80 63 -177 133 l-178 129 222 3 223 2 67 210 c37 116 70 210 73
210 3 0 36 -94 73 -210z m2560 0 l67 -210 227 0 226 0 -174 -126 c-96 -69
-178 -129 -182 -133 -5 -5 22 -102 58 -215 37 -114 65 -209 63 -211 -1 -2 -83
55 -180 126 l-177 130 -178 -130 c-98 -71 -180 -128 -181 -126 -2 2 26 96 62
208 36 113 66 207 66 210 0 3 -80 63 -177 133 l-178 129 222 3 223 2 67 210
c37 116 70 210 73 210 3 0 36 -94 73 -210z m2560 0 l67 -210 227 0 226 0 -174
-126 c-96 -69 -178 -129 -182 -133 -5 -5 22 -102 58 -215 37 -114 65 -209 63
-211 -1 -2 -83 55 -180 126 l-177 130 -178 -130 c-98 -71 -180 -128 -181 -126
-2 2 26 96 62 208 36 113 66 207 66 210 0 3 -80 63 -177 133 l-178 129 222 3
223 2 67 210 c37 116 70 210 73 210 3 0 36 -94 73 -210z m2560 0 l67 -210 227
0 226 0 -174 -126 c-96 -69 -178 -129 -182 -133 -5 -5 22 -102 58 -215 37
-114 65 -209 63 -211 -1 -2 -83 55 -180 126 l-177 130 -178 -130 c-98 -71
-180 -128 -181 -126 -2 2 26 96 62 208 36 113 66 207 66 210 0 3 -80 63 -177
133 l-178 129 222 3 223 2 67 210 c37 116 70 210 73 210 3 0 36 -94 73 -210z
m2560 0 l67 -210 227 0 226 0 -174 -126 c-96 -69 -178 -129 -182 -133 -5 -5
22 -102 58 -215 37 -114 65 -209 63 -211 -1 -2 -83 55 -180 126 l-177 130
-178 -130 c-98 -71 -180 -128 -181 -126 -2 2 26 96 62 208 36 113 66 207 66
210 0 3 -80 63 -177 133 l-178 129 222 3 223 2 67 210 c37 116 70 210 73 210
3 0 36 -94 73 -210z m2560 0 l67 -210 227 0 226 0 -174 -126 c-96 -69 -178
-129 -182 -133 -5 -5 22 -102 58 -215 37 -114 65 -209 63 -211 -1 -2 -83 55
-180 126 l-177 130 -178 -130 c-98 -71 -180 -128 -181 -126 -2 2 26 96 62 208
36 113 66 207 66 210 0 3 -80 63 -177 133 l-178 129 222 3 223 2 67 210 c37
116 70 210 73 210 3 0 36 -94 73 -210z m-11520 -1090 l67 -210 222 -2 222 -3
-177 -128 c-97 -71 -177 -131 -177 -134 0 -3 29 -95 65 -205 36 -110 65 -204
65 -209 0 -4 -81 51 -180 122 l-180 131 -177 -130 c-98 -71 -179 -126 -181
-122 -1 3 27 97 63 207 36 110 65 203 65 206 0 3 -79 63 -176 134 l-176 128
221 3 221 2 67 210 c37 116 70 210 73 210 3 0 36 -94 73 -210z m2560 0 l67
-210 222 -2 222 -3 -177 -128 c-97 -71 -177 -131 -177 -134 0 -3 29 -95 65
-205 36 -110 65 -204 65 -209 0 -4 -81 51 -180 122 l-180 131 -177 -130 c-98
-71 -179 -126 -181 -122 -1 3 27 97 63 207 36 110 65 203 65 206 0 3 -79 63
-176 134 l-176 128 221 3 221 2 67 210 c37 116 70 210 73 210 3 0 36 -94 73
-210z m2560 0 l67 -210 222 -2 222 -3 -177 -128 c-97 -71 -177 -131 -177 -134
0 -3 29 -95 65 -205 36 -110 65 -204 65 -209 0 -4 -81 51 -180 122 l-180 131
-177 -130 c-98 -71 -179 -126 -181 -122 -1 3 27 97 63 207 36 110 65 203 65
206 0 3 -79 63 -176 134 l-176 128 221 3 221 2 67 210 c37 116 70 210 73 210
3 0 36 -94 73 -210z m2560 0 l67 -210 222 -2 222 -3 -177 -128 c-97 -71 -177
-131 -177 -134 0 -3 29 -95 65 -205 36 -110 65 -204 65 -209 0 -4 -81 51 -180
122 l-180 131 -177 -130 c-98 -71 -179 -126 -181 -122 -1 3 27 97 63 207 36
110 65 203 65 206 0 3 -79 63 -176 134 l-176 128 221 3 221 2 67 210 c37 116
70 210 73 210 3 0 36 -94 73 -210z m2560 0 l67 -210 222 -2 222 -3 -177 -128
c-97 -71 -177 -131 -177 -134 0 -3 29 -95 65 -205 36 -110 65 -204 65 -209 0
-4 -81 51 -180 122 l-180 131 -177 -130 c-98 -71 -179 -126 -181 -122 -1 3 27
97 63 207 36 110 65 203 65 206 0 3 -79 63 -176 134 l-176 128 221 3 221 2 67
210 c37 116 70 210 73 210 3 0 36 -94 73 -210z m-11522 -1082 l65 -203 222 -3
c122 -1 222 -6 222 -10 0 -5 -77 -63 -170 -131 -94 -68 -173 -127 -176 -132
-3 -5 25 -99 61 -210 37 -111 64 -203 62 -206 -3 -2 -81 51 -174 118 -92 68
-175 123 -183 123 -8 0 -91 -55 -183 -123 -92 -68 -170 -121 -173 -118 -3 3
25 96 61 207 65 196 66 203 49 220 -11 10 -89 68 -174 130 -85 61 -156 116
-158 121 -2 5 92 10 219 11 l222 3 65 203 c36 111 68 202 72 202 4 0 36 -91
71 -202z m2560 0 l65 -203 222 -3 c122 -1 222 -6 222 -10 0 -5 -77 -63 -170
-131 -94 -68 -173 -127 -176 -132 -3 -5 25 -99 61 -210 37 -111 64 -203 62
-206 -3 -2 -81 51 -174 118 -92 68 -175 123 -183 123 -8 0 -91 -55 -183 -123
-92 -68 -170 -121 -173 -118 -3 3 25 96 61 207 65 196 66 203 49 220 -11 10
-89 68 -174 130 -85 61 -156 116 -158 121 -2 5 92 10 219 11 l222 3 65 203
c36 111 68 202 72 202 4 0 36 -91 71 -202z m2560 0 l65 -203 222 -3 c122 -1
222 -6 222 -10 0 -5 -77 -63 -170 -131 -94 -68 -173 -127 -176 -132 -3 -5 25
-99 61 -210 37 -111 64 -203 62 -206 -3 -2 -81 51 -174 118 -92 68 -175 123
-183 123 -8 0 -91 -55 -183 -123 -92 -68 -170 -121 -173 -118 -3 3 25 96 61
207 65 196 66 203 49 220 -11 10 -89 68 -174 130 -85 61 -156 116 -158 121 -2
5 92 10 219 11 l222 3 65 203 c36 111 68 202 72 202 4 0 36 -91 71 -202z
m2560 0 l65 -203 222 -3 c122 -1 222 -6 222 -10 0 -5 -77 -63 -170 -131 -94
-68 -173 -127 -176 -132 -3 -5 25 -99 61 -210 37 -111 64 -203 62 -206 -3 -2
-81 51 -174 118 -92 68 -175 123 -183 123 -8 0 -91 -55 -183 -123 -92 -68
-170 -121 -173 -118 -3 3 25 96 61 207 65 196 66 203 49 220 -11 10 -89 68
-174 130 -85 61 -156 116 -158 121 -2 5 92 10 219 11 l222 3 65 203 c36 111
68 202 72 202 4 0 36 -91 71 -202z m2560 0 l65 -203 222 -3 c122 -1 222 -6
222 -10 0 -5 -77 -63 -170 -131 -94 -68 -173 -127 -176 -132 -3 -5 25 -99 61
-210 37 -111 64 -203 62 -206 -3 -2 -81 51 -174 118 -92 68 -175 123 -183 123
-8 0 -91 -55 -183 -123 -92 -68 -170 -121 -173 -118 -3 3 25 96 61 207 65 196
66 203 49 220 -11 10 -89 68 -174 130 -85 61 -156 116 -158 121 -2 5 92 10
219 11 l222 3 65 203 c36 111 68 202 72 202 4 0 36 -91 71 -202z m2560 0 l65
-203 222 -3 c122 -1 222 -6 222 -10 0 -5 -77 -63 -170 -131 -94 -68 -173 -127
-176 -132 -3 -5 25 -99 61 -210 37 -111 64 -203 62 -206 -3 -2 -81 51 -174
118 -92 68 -175 123 -183 123 -8 0 -91 -55 -183 -123 -92 -68 -170 -121 -173
-118 -3 3 25 96 61 207 65 196 66 203 49 220 -11 10 -89 68 -174 130 -85 61
-156 116 -158 121 -2 5 92 10 219 11 l222 3 65 203 c36 111 68 202 72 202 4 0
36 -91 71 -202z m-11519 -1090 l66 -203 227 -5 227 -5 -179 -129 c-98 -71
-180 -131 -182 -133 -3 -2 26 -96 63 -209 37 -113 66 -208 63 -210 -2 -2 -82
52 -177 121 -95 69 -176 125 -180 125 -4 0 -85 -56 -180 -126 -95 -69 -174
-123 -177 -120 -2 2 26 97 63 211 43 130 64 209 57 213 -5 4 -88 63 -182 132
l-173 125 227 5 227 5 66 203 c36 111 69 202 72 202 3 0 36 -91 72 -202z
m2560 0 l66 -203 227 -5 227 -5 -179 -129 c-98 -71 -180 -131 -182 -133 -3 -2
26 -96 63 -209 37 -113 66 -208 63 -210 -2 -2 -82 52 -177 121 -95 69 -176
125 -180 125 -4 0 -85 -56 -180 -126 -95 -69 -174 -123 -177 -120 -2 2 26 97
63 211 43 130 64 209 57 213 -5 4 -88 63 -182 132 l-173 125 227 5 227 5 66
203 c36 111 69 202 72 202 3 0 36 -91 72 -202z m2560 0 l66 -203 227 -5 227
-5 -179 -129 c-98 -71 -180 -131 -182 -133 -3 -2 26 -96 63 -209 37 -113 66
-208 63 -210 -2 -2 -82 52 -177 121 -95 69 -176 125 -180 125 -4 0 -85 -56
-180 -126 -95 -69 -174 -123 -177 -120 -2 2 26 97 63 211 43 130 64 209 57
213 -5 4 -88 63 -182 132 l-173 125 227 5 227 5 66 203 c36 111 69 202 72 202
3 0 36 -91 72 -202z m2560 0 l66 -203 227 -5 227 -5 -179 -129 c-98 -71 -180
-131 -182 -133 -3 -2 26 -96 63 -209 37 -113 66 -208 63 -210 -2 -2 -82 52
-177 121 -95 69 -176 125 -180 125 -4 0 -85 -56 -180 -126 -95 -69 -174 -123
-177 -120 -2 2 26 97 63 211 43 130 64 209 57 213 -5 4 -88 63 -182 132 l-173
125 227 5 227 5 66 203 c36 111 69 202 72 202 3 0 36 -91 72 -202z m2560 0
l66 -203 227 -5 227 -5 -179 -129 c-98 -71 -180 -131 -182 -133 -3 -2 26 -96
63 -209 37 -113 66 -208 63 -210 -2 -2 -82 52 -177 121 -95 69 -176 125 -180
125 -4 0 -85 -56 -180 -126 -95 -69 -174 -123 -177 -120 -2 2 26 97 63 211 43
130 64 209 57 213 -5 4 -88 63 -182 132 l-173 125 227 5 227 5 66 203 c36 111
69 202 72 202 3 0 36 -91 72 -202z m-11519 -1088 l68 -210 225 -2 224 -3 -172
-125 c-94 -69 -176 -128 -181 -131 -5 -4 19 -95 57 -214 37 -114 66 -209 63
-211 -2 -2 -81 52 -175 121 -95 69 -176 125 -182 125 -6 0 -87 -56 -182 -125
-94 -69 -173 -123 -175 -121 -3 2 25 95 61 207 36 112 66 206 66 209 0 3 -81
64 -179 135 l-180 130 224 3 224 2 68 210 c37 115 70 209 73 209 3 0 36 -94
73 -209z m2560 0 l68 -210 225 -2 224 -3 -172 -125 c-94 -69 -176 -128 -181
-131 -5 -4 19 -95 57 -214 37 -114 66 -209 63 -211 -2 -2 -81 52 -175 121 -95
69 -176 125 -182 125 -6 0 -87 -56 -182 -125 -94 -69 -173 -123 -175 -121 -3
2 25 95 61 207 36 112 66 206 66 209 0 3 -81 64 -179 135 l-180 130 224 3 224
2 68 210 c37 115 70 209 73 209 3 0 36 -94 73 -209z m2560 0 l68 -210 225 -2
224 -3 -172 -125 c-94 -69 -176 -128 -181 -131 -5 -4 19 -95 57 -214 37 -114
66 -209 63 -211 -2 -2 -81 52 -175 121 -95 69 -176 125 -182 125 -6 0 -87 -56
-182 -125 -94 -69 -173 -123 -175 -121 -3 2 25 95 61 207 36 112 66 206 66
209 0 3 -81 64 -179 135 l-180 130 224 3 224 2 68 210 c37 115 70 209 73 209
3 0 36 -94 73 -209z m2560 0 l68 -210 225 -2 224 -3 -172 -125 c-94 -69 -176
-128 -181 -131 -5 -4 19 -95 57 -214 37 -114 66 -209 63 -211 -2 -2 -81 52
-175 121 -95 69 -176 125 -182 125 -6 0 -87 -56 -182 -125 -94 -69 -173 -123
-175 -121 -3 2 25 95 61 207 36 112 66 206 66 209 0 3 -81 64 -179 135 l-180
130 224 3 224 2 68 210 c37 115 70 209 73 209 3 0 36 -94 73 -209z m2560 0
l68 -210 225 -2 224 -3 -172 -125 c-94 -69 -176 -128 -181 -131 -5 -4 19 -95
57 -214 37 -114 66 -209 63 -211 -2 -2 -81 52 -175 121 -95 69 -176 125 -182
125 -6 0 -87 -56 -182 -125 -94 -69 -173 -123 -175 -121 -3 2 25 95 61 207 36
112 66 206 66 209 0 3 -81 64 -179 135 l-180 130 224 3 224 2 68 210 c37 115
70 209 73 209 3 0 36 -94 73 -209z m2560 0 l68 -210 225 -2 224 -3 -172 -125
c-94 -69 -176 -128 -181 -131 -5 -4 19 -95 57 -214 37 -114 66 -209 63 -211
-2 -2 -81 52 -175 121 -95 69 -176 125 -182 125 -6 0 -87 -56 -182 -125 -94
-69 -173 -123 -175 -121 -3 2 25 95 61 207 36 112 66 206 66 209 0 3 -81 64
-179 135 l-180 130 224 3 224 2 68 210 c37 115 70 209 73 209 3 0 36 -94 73
-209z"/>
<path d="M0 7005 l0 -775 19200 0 19200 0 0 775 0 775 -19200 0 -19200 0 0
-775z"/>
<path d="M0 3895 l0 -775 19200 0 19200 0 0 775 0 775 -19200 0 -19200 0 0
-775z"/>
<path d="M0 785 l0 -775 19200 0 19200 0 0 775 0 775 -19200 0 -19200 0 0
-775z"/>
</g>
</svg>
